<svg width="14" height="9" viewBox="0 0 14 9" fill="none" xmlns="http://www.w3.org/2000/svg">
<path fill-rule="evenodd" clip-rule="evenodd" d="M1.37964 0.674613C1.19993 0.46495 0.884276 0.44067 0.674613 0.620381C0.46495 0.800092 0.44067 1.11574 0.620381 1.3254L6.61452 8.31856C6.62417 8.33021 6.63442 8.34151 6.64527 8.35241C6.68721 8.39471 6.73515 8.42807 6.78656 8.4523C6.85424 8.48429 6.92724 8.50005 7.00001 8.50002C7.07278 8.50005 7.14578 8.48429 7.21346 8.4523C7.26486 8.42807 7.31281 8.39471 7.35475 8.35241C7.3656 8.34151 7.37585 8.33021 7.3855 8.31856L13.3796 1.3254C13.5593 1.11574 13.5351 0.800092 13.3254 0.620381C13.1157 0.44067 12.8001 0.46495 12.6204 0.674613L7.00001 7.23171L1.37964 0.674613Z" fill="black"/>
</svg>
