<svg width="280" height="44" viewBox="0 0 280 44" fill="none" xmlns="http://www.w3.org/2000/svg">
<path d="M51.4451 15.841C52.355 13.961 53.0615 12.6175 53.5558 11.8103C54.0518 11.0032 54.5615 10.4151 55.0832 10.0443C55.6066 9.67346 56.2429 9.48719 56.9938 9.48719H58.6016V4.88054H57.394C55.7588 4.88054 54.4247 5.15304 53.3933 5.69459C52.3602 6.23787 51.4092 7.13126 50.5385 8.37476C49.6662 9.61999 48.5749 11.5516 47.2613 14.1732L45.7715 17.2724H45.3696V4.99954H40.021V32.8016H45.3696V20.4114H46.0127L53.212 32.8016H59.4859L50.5112 17.7519C50.7951 17.1862 51.1047 16.5498 51.4434 15.8427L51.4451 15.841Z" fill="black"/>
<path d="M67.0803 4.8439H61.7317V8.01044H67.0803V4.8439Z" fill="black"/>
<path d="M66.9588 9.72498H61.9318V32.7996H66.9588V9.72498Z" fill="black"/>
<path d="M81.8894 9.28902C80.3876 9.28902 79.0945 9.63395 78.0084 10.3221C76.9222 11.0103 76.0773 12.2279 75.4735 13.9767C75.0356 15.2444 74.7499 16.8345 74.6165 18.7421H74.6097L74.3685 9.72536H70.1061V32.8H75.1331V20.0528C75.222 18.4592 75.4239 17.1881 75.7369 16.2378C76.1115 15.0995 76.628 14.2906 77.2848 13.8163C77.9416 13.3386 78.7524 13.1006 79.7171 13.1006C80.4936 13.1006 81.1111 13.2144 81.5678 13.4386C82.0228 13.6646 82.3512 14.0285 82.553 14.5304C82.7548 15.034 82.854 15.7221 82.854 16.5965V32.8H87.9221V15.8411C87.9221 13.6973 87.4329 12.0692 86.4545 10.9568C85.4745 9.84437 83.9539 9.28902 81.8894 9.28902Z" fill="black"/>
<path d="M104.373 15.2873C104.296 14.8717 104.209 14.4785 104.11 14.1128C103.68 12.5382 102.976 11.3395 101.997 10.5186C101.019 9.69761 99.7514 9.28713 98.1966 9.28713C96.6418 9.28713 95.3743 9.69071 94.3155 10.4996C93.2568 11.3085 92.446 12.5589 91.8833 14.2525C91.3206 15.9479 91.0383 18.1452 91.0383 20.846C91.0383 23.5469 91.3137 25.8838 91.8628 27.6189C92.4118 29.3522 93.2038 30.6164 94.2352 31.4115C95.2666 32.2048 96.534 32.6032 98.0358 32.6032C99.6436 32.6032 100.945 32.1393 101.937 31.2131C102.929 30.287 103.646 28.9365 104.089 27.1618C104.154 26.9014 104.214 26.6272 104.27 26.3426V32.8809C104.27 33.9657 104.13 34.8264 103.848 35.4628C103.566 36.0992 103.131 36.5545 102.541 36.8339C101.951 37.1116 101.173 37.2513 100.208 37.2513C99.1886 37.2513 98.3847 37.0529 97.7946 36.6563C97.2045 36.2596 96.8299 35.5973 96.6691 34.6694H91.8833C92.0714 36.0992 92.5401 37.2513 93.291 38.1257C94.0419 38.9984 95.0014 39.621 96.1663 39.9918C97.3328 40.3626 98.7063 40.5472 100.288 40.5472C102.406 40.5472 104.128 40.2298 105.456 39.5951C106.783 38.9587 107.755 38.0119 108.372 36.7546C108.988 35.4955 109.296 33.9675 109.296 32.1669V9.7252H104.751L104.371 15.2873H104.373ZM103.829 25.5924C103.533 26.8238 103.078 27.7241 102.462 28.2932C101.845 28.8641 101.08 29.147 100.17 29.147C98.8294 29.147 97.8237 28.4985 97.1549 27.2015C96.4844 25.9045 96.1492 23.7469 96.1492 20.727C96.1492 17.7071 96.4844 15.7685 97.1549 14.5129C97.8237 13.2556 98.8157 12.6261 100.131 12.6261C101.041 12.6261 101.812 12.9107 102.444 13.4799C103.073 14.0507 103.537 14.9183 103.831 16.0807C104.125 17.2466 104.272 18.7954 104.272 20.727C104.272 22.6587 104.125 24.3627 103.831 25.5924H103.829Z" fill="black"/>
<path d="M129.765 10.5393C128.384 9.70623 126.662 9.28713 124.597 9.28713C122.533 9.28713 120.737 9.70451 119.369 10.5393C118.002 11.374 116.976 12.6641 116.291 14.4112C115.609 16.1583 115.265 18.4487 115.265 21.2824C115.265 24.116 115.607 26.334 116.291 28.0932C116.976 29.8541 118.002 31.1528 119.369 31.9858C120.735 32.8188 122.464 33.2379 124.556 33.2379C126.648 33.2379 128.383 32.8206 129.765 31.9858C131.145 31.1528 132.178 29.8541 132.861 28.0932C133.545 26.3323 133.887 24.0488 133.887 21.2427C133.887 18.4366 133.545 16.1583 132.861 14.4112C132.178 12.6641 131.145 11.374 129.765 10.5393ZM128.297 26.0494C128.001 27.2153 127.546 28.0552 126.929 28.5709C126.313 29.0883 125.535 29.3453 124.597 29.3453C123.66 29.3453 122.88 29.0883 122.264 28.5709C121.649 28.0535 121.178 27.2136 120.857 26.0494C120.535 24.8835 120.374 23.2951 120.374 21.2841C120.374 19.2731 120.535 17.6036 120.857 16.4394C121.178 15.2735 121.649 14.4267 122.264 13.8972C122.88 13.3678 123.658 13.1022 124.597 13.1022C125.536 13.1022 126.345 13.3591 126.949 13.8765C127.553 14.3939 128.001 15.2477 128.297 16.4377C128.591 17.6295 128.738 19.2455 128.738 21.2824C128.738 23.3192 128.591 24.8835 128.297 26.0477V26.0494Z" fill="black"/>
<path d="M142.776 9.64582C142.776 8.69379 142.843 7.93148 142.978 7.36233C143.112 6.79318 143.366 6.28957 143.741 5.85323C144.116 5.41688 144.68 4.97363 145.431 4.52176C145.966 4.20442 146.531 3.86121 147.121 3.4904L143.945 0.630859C142.174 1.47768 140.828 2.37797 139.903 3.33173C138.979 4.28548 138.38 5.23751 138.114 6.19126C137.845 7.14502 137.712 8.27124 137.712 9.56649V9.72516H134.455V13.6178H137.712V32.8791H142.78V13.6178H147.244V9.72516H142.78V9.64582H142.776Z" fill="black"/>
<path d="M170.401 22.672C169.852 21.8252 169.088 21.2371 168.109 20.9059C167.429 20.6765 166.568 20.5351 165.533 20.4782C166.72 20.3764 167.755 20.1246 168.631 19.7159C169.851 19.145 170.776 18.2723 171.407 17.0943C172.037 15.9164 172.353 14.4262 172.353 12.6257C172.353 10.8251 172.043 9.32979 171.428 8.21736C170.812 7.10493 169.9 6.29088 168.693 5.7752C167.487 5.25779 165.971 5.00081 164.148 5.00081H153.651V32.8028H159V21.6424H163.101C163.717 21.6424 164.222 21.7752 164.61 22.039C164.998 22.3029 165.32 22.7479 165.574 23.3688C165.829 23.9914 166.023 24.8589 166.158 25.9696L167.205 32.8011H172.794L171.669 26.3663C171.373 24.752 170.952 23.5205 170.401 22.672ZM163.062 17.748H159.001V9.24872H163.424C164.175 9.24872 164.812 9.38153 165.335 9.6454C165.858 9.91101 166.254 10.3284 166.522 10.8975C166.791 11.4684 166.924 12.2152 166.924 13.1414C166.924 14.7574 166.616 15.9285 165.999 16.6563C165.383 17.3858 164.405 17.748 163.064 17.748H163.062Z" fill="black"/>
<path d="M188.791 10.4989C187.491 9.66584 185.821 9.24673 183.784 9.24673C180.62 9.24673 178.282 10.254 176.766 12.2667C175.251 14.2794 174.493 17.3252 174.493 21.4006C174.493 24.048 174.808 26.2401 175.439 27.9734C176.068 29.7085 177.069 31.0123 178.436 31.8868C179.802 32.7595 181.598 33.1975 183.825 33.1975C185.566 33.1975 187.055 32.8992 188.289 32.3041C189.523 31.7074 190.481 30.7692 191.165 29.4843C191.847 28.1994 192.271 26.5385 192.432 24.4999H187.807C187.699 25.6382 187.513 26.573 187.244 27.3008C186.976 28.0286 186.56 28.565 185.997 28.9082C185.435 29.2532 184.709 29.4256 183.825 29.4256C182.778 29.4256 181.935 29.1686 181.29 28.6512C180.647 28.1338 180.172 27.3077 179.864 26.1694C179.59 25.1656 179.44 23.8411 179.409 22.1992H192.513V19.895C192.513 17.6184 192.217 15.6919 191.627 14.1155C191.036 12.5409 190.092 11.3353 188.791 10.5006V10.4989ZM183.704 13.1014C184.694 13.1014 185.479 13.3584 186.056 13.8758C186.632 14.3932 187.046 15.1866 187.303 16.2593C187.455 16.8992 187.556 17.6753 187.607 18.5825H179.448C179.566 16.9009 179.912 15.6212 180.486 14.7502C181.21 13.6516 182.282 13.1014 183.704 13.1014Z" fill="black"/>
<path d="M212.708 16.7148C212.708 15.1005 212.432 13.7363 211.883 12.6238C211.334 11.5114 210.455 10.6715 209.249 10.1023C208.043 9.53319 206.501 9.24861 204.624 9.24861C202.748 9.24861 201.031 9.60045 199.719 10.3007C198.405 11.0026 197.42 12.0754 196.763 13.5172C196.106 14.9608 195.737 16.7941 195.656 19.0173H200.24C200.348 16.7941 200.716 15.2057 201.347 14.2519C201.977 13.2999 202.962 12.8222 204.303 12.8222C205.132 12.8222 205.791 12.9619 206.273 13.2395C206.755 13.5172 207.11 13.9674 207.339 14.59C207.565 15.2126 207.681 16.0663 207.681 17.1511V17.6047L204.342 19.0173C201.983 20.0245 200.193 20.9179 198.973 21.6974C197.752 22.4787 196.842 23.3324 196.238 24.2586C195.636 25.1865 195.333 26.2972 195.333 27.5942C195.333 28.7325 195.549 29.719 195.976 30.5537C196.406 31.3868 197.021 32.0232 197.827 32.4595C198.631 32.8959 199.623 33.1149 200.803 33.1149C202.438 33.1149 203.772 32.7113 204.804 31.9024C205.837 31.0953 206.614 29.957 207.137 28.4875C207.659 27.0181 207.987 25.2641 208.122 23.2255L208.324 23.1858V32.7976H212.949L212.708 25.6487V16.7131V16.7148ZM207.118 25.9298C206.742 27.0164 206.186 27.8891 205.45 28.5514C204.712 29.2136 203.836 29.5431 202.816 29.5431C202.011 29.5431 201.402 29.3378 200.986 28.9273C200.571 28.5169 200.362 27.8753 200.362 27.0009C200.362 26.3127 200.497 25.7229 200.764 25.2331C201.032 24.7432 201.489 24.2672 202.13 23.8033C202.774 23.3393 203.699 22.7771 204.907 22.1165L207.681 20.8937V22.4718C207.681 23.6895 207.493 24.8415 207.118 25.9281V25.9298Z" fill="black"/>
<path d="M222.711 13.8767C223.301 13.3593 224.091 13.1023 225.085 13.1023C225.942 13.1023 226.665 13.2955 227.257 13.6784C227.845 14.063 228.282 14.6856 228.564 15.5445C228.846 16.4051 229.026 17.5779 229.106 19.0594H233.811C233.731 16.7569 233.362 14.8891 232.705 13.4593C232.046 12.0296 231.082 10.9775 229.809 10.3014C228.536 9.62706 226.894 9.28902 224.883 9.28902C222.738 9.28902 221.002 9.72536 219.675 10.5998C218.347 11.4725 217.367 12.797 216.738 14.57C216.108 16.3447 215.792 18.6213 215.792 21.4015C215.792 24.1817 216.095 26.3203 216.697 28.0537C217.3 29.7887 218.272 31.0805 219.613 31.9273C220.954 32.7741 222.709 33.1984 224.881 33.1984C226.785 33.1984 228.367 32.8742 229.626 32.2257C230.887 31.5772 231.865 30.5372 232.561 29.1074C233.257 27.6777 233.675 25.7857 233.808 23.428H229.103C228.995 24.8837 228.808 26.0496 228.54 26.924C228.271 27.7967 227.863 28.4262 227.313 28.8108C226.764 29.1954 226.02 29.3868 225.081 29.3868C224.062 29.3868 223.258 29.1488 222.668 28.6728C222.078 28.1951 221.635 27.3741 221.341 26.21C221.045 25.0441 220.898 23.4436 220.898 21.405C220.898 19.3664 221.052 17.6986 221.361 16.481C221.667 15.2633 222.117 14.3958 222.707 13.8801L222.711 13.8767Z" fill="black"/>
<path d="M252.534 10.9569C251.554 9.84452 250.033 9.28916 247.969 9.28916C246.467 9.28916 245.174 9.6341 244.088 10.3223C243.002 11.0104 242.157 12.228 241.553 13.9769C241.426 14.3442 241.313 14.7409 241.211 15.1617V2.61806H236.184V32.8019H241.211V20.0547C241.3 18.4611 241.502 17.19 241.815 16.2397C242.189 15.1014 242.706 14.2925 243.363 13.8182C244.019 13.3405 244.83 13.1025 245.795 13.1025C246.571 13.1025 247.189 13.2163 247.646 13.4405C248.101 13.6664 248.429 14.0303 248.631 14.5322C248.833 15.0358 248.932 15.724 248.932 16.5984V32.8019H254V15.843C254 13.6992 253.511 12.0711 252.532 10.9587L252.534 10.9569Z" fill="black"/>
<path d="M34 32.9983H26.7836C24.7574 32.9983 22.8657 32.0067 21.7402 30.3535L14.0142 19.0104H14L14.0071 19L14 18.9896H14.0142L21.5686 7.89655C22.802 6.08708 24.8724 5 27.0915 5H34L24.4654 19L34 33V32.9983Z" fill="#05CEBF"/>
<path d="M0 5V18H13C13 10.8205 7.17949 5 0 5Z" fill="#FA4616"/>
<path d="M6.5 33C10.0899 33 13 29.866 13 26C13 22.134 10.0899 19 6.5 19C2.91015 19 0 22.134 0 26C0 29.866 2.91015 33 6.5 33Z" fill="#5D36FF"/>
</svg>
