<svg width="12" height="12" viewBox="0 0 12 12" fill="none" xmlns="http://www.w3.org/2000/svg">
<path fill-rule="evenodd" clip-rule="evenodd" d="M4.98881 1.21754C2.90181 1.21754 1.21375 2.9083 1.21375 4.98914C1.21375 7.07014 2.90177 8.76089 4.98881 8.76089C6.03216 8.76089 6.97548 8.33876 7.65912 7.65536C8.34265 6.97196 8.764 6.03028 8.764 4.98914C8.764 2.9083 7.07586 1.21754 4.98881 1.21754ZM0 4.98914C0 2.23166 2.23565 0 4.98881 0C7.74182 0 9.97763 2.2315 9.97763 4.98914C9.97763 6.14748 9.5824 7.21404 8.92082 8.0602L11.8215 10.9602C12.0589 11.1974 12.0596 11.5828 11.823 11.8209C11.5866 12.0591 11.2025 12.0597 10.9651 11.8225L8.06144 8.92C7.2146 9.58281 6.14745 9.97824 4.98898 9.97824C2.23597 9.97824 0 7.74678 0 4.98914Z" fill="black"/>
</svg>
